<svg width="101" height="100" viewBox="0 0 101 100" fill="none" xmlns="http://www.w3.org/2000/svg">
<g id="analytics-svgrepo-com 1" clip-path="url(#clip0_51_1358)">
<g id="Group">
<path id="Vector" d="M88.8335 76.6666C91.5835 76.6666 93.8335 78.9166 93.8335 81.6666C93.8335 84.4166 91.5835 86.6666 88.8335 86.6666H18.8335C16.0835 86.6666 13.8335 84.4166 13.8335 81.6666C13.8335 78.9166 16.0835 76.6666 18.8335 76.6666H22.1669C38.8335 76.6666 37.1669 50 37.1669 50C37.1669 33.3334 53.8335 33.3334 53.8335 33.3334C53.8335 33.3334 70.5001 33.3334 70.5001 50C70.5001 50 68.8335 76.6666 85.5001 76.6666H88.8335Z" fill="#F0C419"/>
<g id="Group_2">
<path id="Vector_2" d="M5.5001 100C4.58018 100 3.8335 99.2551 3.8335 98.3334V1.6666C3.8335 0.744922 4.58018 0 5.5001 0C6.42002 0 7.1667 0.744922 7.1667 1.6666V98.3332C7.1667 99.2551 6.42002 100 5.5001 100Z" fill="#353E56"/>
<path id="Vector_3" d="M98.8334 96.6666H2.1666C1.24668 96.6666 0.5 95.9217 0.5 95C0.5 94.0783 1.24668 93.3334 2.1666 93.3334H98.8332C99.7531 93.3334 100.5 94.0783 100.5 95C100.5 95.9217 99.7533 96.6666 98.8334 96.6666Z" fill="#353E56"/>
</g>
<path id="Vector_4" d="M15.5 48.3334H12.1666C11.2467 48.3334 10.5 47.5885 10.5 46.6668C10.5 45.7451 11.2467 45.0002 12.1666 45.0002H15.5C16.4199 45.0002 17.1666 45.7451 17.1666 46.6668C17.1666 47.5883 16.4199 48.3334 15.5 48.3334Z" fill="#C03A2B"/>
<path id="Vector_5" d="M15.5 41.6666H12.1666C11.2467 41.6666 10.5 40.9217 10.5 40C10.5 39.0783 11.2467 38.3334 12.1666 38.3334H15.5C16.4199 38.3334 17.1666 39.0783 17.1666 40C17.1666 40.9217 16.4199 41.6666 15.5 41.6666Z" fill="#24AE5F"/>
<path id="Vector_6" d="M15.5 35H12.1666C11.2467 35 10.5 34.2551 10.5 33.3334C10.5 32.4117 11.2467 31.6668 12.1666 31.6668H15.5C16.4199 31.6668 17.1666 32.4117 17.1666 33.3334C17.1666 34.2551 16.4199 35 15.5 35Z" fill="#F0C419"/>
<path id="Vector_7" d="M15.5 28.3334H12.1666C11.2467 28.3334 10.5 27.5885 10.5 26.6668C10.5 25.7451 11.2467 25 12.1666 25H15.5C16.4199 25 17.1666 25.7449 17.1666 26.6666C17.1666 27.5883 16.4199 28.3334 15.5 28.3334Z" fill="#4482C3"/>
<path id="Vector_8" d="M15.5 21.6666H12.1666C11.2467 21.6666 10.5 20.9217 10.5 20C10.5 19.0783 11.2467 18.3334 12.1666 18.3334H15.5C16.4199 18.3334 17.1666 19.0783 17.1666 20C17.1666 20.9217 16.4199 21.6666 15.5 21.6666Z" fill="#24AE5F"/>
<path id="Vector_9" d="M15.5 15H12.1666C11.2467 15 10.5 14.2551 10.5 13.3334C10.5 12.4117 11.2467 11.6668 12.1666 11.6668H15.5C16.4199 11.6668 17.1666 12.4117 17.1666 13.3334C17.1666 14.2551 16.4199 15 15.5 15Z" fill="#F0C419"/>
<path id="Vector_10" d="M15.5 8.33339H12.1666C11.2467 8.33339 10.5 7.58846 10.5 6.66678C10.5 5.7451 11.2467 5.00018 12.1666 5.00018H15.5C16.4199 5.00018 17.1666 5.7451 17.1666 6.66678C17.1666 7.58846 16.4199 8.33339 15.5 8.33339Z" fill="#C03A2B"/>
</g>
</g>
<defs>
<clipPath id="clip0_51_1358">
<rect width="100" height="100" fill="white" transform="translate(0.5)"/>
</clipPath>
</defs>
</svg>
