<svg xmlns="http://www.w3.org/2000/svg" width="84" height="84" viewBox="0 0 84 84" fill="none">
  <path d="M41.5412 0C18.6936 0 0 18.6936 0 41.5412C0 64.3889 18.6936 83.0825 41.5412 83.0825C64.3889 83.0825 83.0825 64.3889 83.0825 41.5412C83.0825 18.6936 64.3889 0 41.5412 0ZM41.5412 10.3853C58.7808 10.3853 72.6971 24.3016 72.6971 41.5412C72.6971 58.7808 58.7808 72.6971 41.5412 72.6971C24.3016 72.6971 10.3853 58.7808 10.3853 41.5412C10.3853 24.3016 24.3016 10.3853 41.5412 10.3853ZM41.5412 20.7706C30.1174 20.7706 20.7706 30.1174 20.7706 41.5412C20.7706 52.9651 30.1174 62.3118 41.5412 62.3118C52.9651 62.3118 62.3118 52.9651 62.3118 41.5412C62.3118 30.1174 52.9651 20.7706 41.5412 20.7706ZM41.5412 31.1559C47.357 31.1559 51.9265 35.7255 51.9265 41.5412C51.9265 47.357 47.357 51.9265 41.5412 51.9265C35.7255 51.9265 31.1559 47.357 31.1559 41.5412C31.1559 35.7255 35.7255 31.1559 41.5412 31.1559Z" fill="white"/>
</svg>