<svg xmlns="http://www.w3.org/2000/svg" width="51" height="47" viewBox="0 0 51 47" fill="none">
  <rect x="1.3339" y="0.884434" width="48.0231" height="44.4659" rx="9.78249" stroke="#A6A6A6" stroke-opacity="0.5" stroke-width="1.77863"/>
  <circle cx="25.5" cy="23.5" r="13.5" fill="white" fill-opacity="0.3"/>
  <path fill-rule="evenodd" clip-rule="evenodd" d="M29.7825 19C29.5335 19 29.3111 19.0978 29.1511 19.2579L23.5573 24.8606L21.5207 22.8152C21.3607 22.6551 21.1383 22.5573 20.8893 22.5573C20.4002 22.5573 20 22.9575 20 23.4466C20 23.6956 20.0978 23.9179 20.2579 24.078L22.9259 26.746C23.0859 26.906 23.3083 27.0039 23.5573 27.0039C23.8063 27.0039 24.0286 26.906 24.1887 26.746L30.4139 20.5207C30.574 20.3607 30.6718 20.1383 30.6718 19.8893C30.6718 19.4002 30.2716 19 29.7825 19Z" fill="white"/>
</svg>