<svg xmlns="http://www.w3.org/2000/svg" width="97" height="86" viewBox="0 0 97 86" fill="none">
  <path d="M81.0915 0L96.2074 26.7243H79.321L67.7628 0H81.0915ZM59.7121 0L71.2703 26.7243H24.9371L36.4954 0H59.7121ZM15.1159 0H28.4447L16.8864 26.7243H0L15.1159 0ZM0 32.0692H16.8196L37.3639 74.1098C37.6144 74.6276 36.9129 75.0953 36.5288 74.661L0 32.0692ZM24.7534 32.0692H71.4541L48.5714 85.2171C48.4044 85.618 47.8198 85.618 47.6527 85.2171L24.7534 32.0692ZM58.8435 74.1098L79.3878 32.0692H96.2074L59.6787 74.6443C59.2945 75.0953 58.593 74.6276 58.8435 74.1098Z" fill="white"/>
</svg>