<svg xmlns="http://www.w3.org/2000/svg" xmlns:xlink="http://www.w3.org/1999/xlink" width="500" zoomAndPan="magnify" viewBox="0 0 375 374.999991" height="500" preserveAspectRatio="xMidYMid meet" version="1.0"><path fill="#ffffff" d="M 187.5 0 C 83.925781 0 0 83.925781 0 187.5 C 0 291.074219 83.925781 375 187.5 375 C 291.074219 375 375 291.074219 375 187.5 C 375 83.925781 291.074219 0 187.5 0 Z M 148.726562 93.523438 C 159.449219 82.800781 172.5 77.398438 187.648438 77.398438 C 202.800781 77.398438 215.925781 82.800781 226.574219 93.523438 C 237.300781 104.25 242.699219 117.375 242.699219 132.449219 C 242.699219 147.601562 237.300781 160.726562 226.574219 171.375 C 215.851562 182.101562 202.726562 187.5 187.648438 187.5 C 172.5 187.5 159.449219 182.101562 148.726562 171.375 C 138 160.648438 132.601562 147.523438 132.601562 132.449219 C 132.523438 117.375 138 104.25 148.726562 93.523438 Z M 273.226562 295.574219 C 265.800781 302.625 256.050781 306.148438 244.125 306.148438 L 134.023438 306.148438 C 122.101562 306.148438 112.351562 302.550781 104.925781 295.574219 C 97.425781 288.449219 93.675781 278.773438 93.675781 266.851562 C 93.675781 262.273438 93.824219 257.699219 94.125 253.351562 C 94.425781 248.851562 95.023438 244.050781 96 238.875 C 96.898438 233.699219 98.101562 228.824219 99.523438 224.324219 C 101.023438 219.675781 103.050781 215.175781 105.523438 210.75 C 108.074219 206.25 111.148438 202.273438 114.523438 198.976562 C 118.050781 195.601562 122.476562 192.824219 127.5 190.875 C 132.523438 188.925781 138.074219 187.875 144 187.875 C 146.324219 187.875 148.574219 188.851562 152.925781 191.699219 C 155.625 193.5 158.773438 195.523438 162.226562 197.699219 C 165.226562 199.574219 169.273438 201.375 174.300781 203.023438 C 179.175781 204.601562 184.125 205.425781 189.074219 205.425781 C 193.949219 205.425781 198.976562 204.601562 203.851562 203.023438 C 208.875 201.375 212.925781 199.648438 215.925781 197.699219 C 219.449219 195.449219 222.601562 193.425781 225.226562 191.699219 C 229.574219 188.851562 231.824219 187.875 234.148438 187.875 C 240.074219 187.875 245.625 188.851562 250.648438 190.875 C 255.675781 192.898438 260.023438 195.601562 263.625 198.976562 C 267 202.199219 270.074219 206.175781 272.625 210.75 C 275.101562 215.101562 277.125 219.675781 278.625 224.324219 C 280.050781 228.824219 281.25 233.699219 282.148438 238.875 C 283.050781 243.976562 283.726562 248.851562 284.023438 253.351562 C 284.324219 257.699219 284.476562 262.273438 284.476562 266.851562 C 284.476562 278.773438 280.726562 288.449219 273.226562 295.574219 Z M 273.226562 295.574219 " fill-opacity="1" fill-rule="nonzero"/></svg>