<svg xmlns="http://www.w3.org/2000/svg" width="91" height="91" viewBox="0 0 91 91" fill="none">
  <path d="M50.4 62.2001H41.6C39.18 62.2001 37.2 60.2201 37.2 57.8001H6.444V75.4001C6.444 80.2401 10.404 84.2001 15.244 84.2001H76.8C81.64 84.2001 85.6 80.2401 85.6 75.4001V57.8001H54.8C54.8 60.2201 52.82 62.2001 50.4 62.2001ZM81.2 22.6001H63.6C63.6 12.8761 55.724 5.00009 46 5.00009C36.276 5.00009 28.4 12.8761 28.4 22.6001H10.8C5.96 22.6001 2 26.5601 2 31.4001V44.6001C2 49.4841 5.916 53.4001 10.8 53.4001H37.2V49.0001C37.2 46.5801 39.18 44.6001 41.6 44.6001H50.4C52.82 44.6001 54.8 46.5801 54.8 49.0001V53.4001H81.2C86.04 53.4001 90 49.4401 90 44.6001V31.4001C90 26.5601 86.04 22.6001 81.2 22.6001ZM37.2 22.6001C37.2 17.7601 41.16 13.8001 46 13.8001C50.84 13.8001 54.8 17.7601 54.8 22.6001H37.156H37.2Z" fill="white"/>
</svg>