<svg width="101" height="100" viewBox="0 0 101 100" fill="none" xmlns="http://www.w3.org/2000/svg">
<g id="user-search-svgrepo-com 1" clip-path="url(#clip0_51_1345)">
<path id="Vector" d="M75.6219 62.8835L75.326 62.7979C71.0168 61.6413 69.5581 60.5305 67.6416 59.8013C60.8393 57.2104 59.0696 55.3426 58.6147 54.4577C58.5995 54.4272 58.5872 54.3936 58.5719 54.36L58.517 46.4574L42.3841 46.2743L26.2497 46.4574L26.1919 54.36C26.1797 54.3936 26.1674 54.4272 26.149 54.4577C25.6973 55.3426 23.9274 57.2104 17.1251 59.8013C15.2057 60.5305 13.7499 61.6413 9.44094 62.7979L9.14482 62.8835C5.22346 64.1806 2.58374 67.8181 2.58374 71.9226V83.3331H42.3841H82.18V71.9226C82.18 67.8181 79.5403 64.1806 75.6219 62.8835Z" fill="#5D9CEC"/>
<path id="Vector_2" d="M51.1946 83.3331H33.8333L36.3084 67.7083L48.4327 62.499L51.1946 83.3331Z" fill="#967ADC"/>
<path id="Vector_3" d="M48.4601 67.7083H36.3084L32.8354 50.3458H51.9331L48.4601 67.7083Z" fill="#AC92EB"/>
<path id="Vector_4" d="M26.1492 45.3652V54.4579L33.5038 62.9355L43.1718 55.123L26.1492 45.3652Z" fill="#F5F7FA"/>
<path id="Vector_5" d="M64.7702 31.1686C64.7702 45.7131 50.9047 59.1027 42.3845 59.1027C33.8643 59.1027 19.9971 45.7129 19.9971 31.1686C19.9971 16.6211 30.0188 7.02356 42.3845 7.02356C54.7455 7.02336 64.7702 16.6209 64.7702 31.1686Z" fill="#EAC6BB"/>
<path id="Vector_6" d="M56.2316 4.62483C52.4244 1.17629 39.1983 -3.77965 26.9336 4.62483C17.2596 11.25 18.2363 27.9581 18.2363 27.9581C18.2363 27.9581 30.9314 31.1686 45.4699 22.8587C54.8677 17.4907 58.1423 22.9504 59.8266 27.7048C61.4684 32.3343 64.7704 31.1686 64.7704 31.1686C64.7704 31.1686 68.414 15.6536 56.2316 4.62483Z" fill="#FFCE54"/>
<path id="Vector_7" d="M51.7014 20.6615C53.3462 20.5425 54.6722 20.924 55.7557 21.6197C56.2011 19.9565 56.7625 18.6076 57.3727 17.5183L59.9882 14.3354C61.0136 13.5145 61.9444 13.1544 62.506 12.9988C61.92 11.775 61.2181 10.5452 60.3819 9.33685C57.7666 10.371 53.6713 13.1636 51.7014 20.6615Z" fill="#F6BB42"/>
<path id="Vector_8" d="M65.0816 89.583C58.9628 89.583 53.209 87.1998 48.8785 82.8722C44.5512 78.542 42.1677 72.7895 42.1677 66.6678C42.1677 60.5462 44.551 54.7906 48.8785 50.4617C53.209 46.1343 58.9628 43.7477 65.0816 43.7477C71.2032 43.7477 76.9588 46.1341 81.2862 50.4617C85.6164 54.7906 88.0001 60.5462 88.0001 66.6678C88.0001 72.7895 85.6166 78.542 81.2862 82.8722C76.9586 87.1996 71.2032 89.583 65.0816 89.583Z" fill="#4FC2E9"/>
<g id="Group">
<path id="Vector_9" d="M82.7602 48.9875C77.8805 44.1078 71.481 41.6665 65.0816 41.6665C58.6853 41.6665 52.2874 44.1078 47.4077 48.9875C37.6453 58.7517 37.6453 74.5808 47.4077 84.3431C52.2874 89.2258 58.6855 91.6673 65.0816 91.6673C71.481 91.6673 77.8775 89.226 82.7602 84.3431C92.5225 74.5808 92.5225 58.7515 82.7602 48.9875ZM79.8153 81.3983C75.8785 85.332 70.648 87.4989 65.0816 87.4989C59.5183 87.4989 54.2878 85.332 50.3525 81.3983C46.4189 77.4648 44.2522 72.2311 44.2522 66.6679C44.2522 61.1015 46.4189 55.8709 50.3525 51.9357C54.2878 47.9989 59.5183 45.8322 65.0816 45.8322C70.648 45.8322 75.8785 47.9989 79.8153 51.9357C83.749 55.8709 85.9157 61.1017 85.9157 66.6679C85.9155 72.2309 83.749 77.4648 79.8153 81.3983Z" fill="#434A54"/>
<path id="Vector_10" d="M97.8052 96.4432C97.7259 96.3639 97.6434 96.2968 97.5548 96.2327L83.1997 81.8776L80.2549 84.8253L94.8391 99.4095L94.8604 99.3912C95.672 100.203 96.9902 100.203 97.8052 99.3912C98.6199 98.5765 98.6199 97.2581 97.8052 96.4432Z" fill="#434A54"/>
</g>
<path id="Vector_11" d="M65.0815 49.9977C55.8775 49.9977 48.4177 57.4637 48.4177 66.6679C48.4177 67.8184 49.3514 68.749 50.5021 68.749C51.6526 68.749 52.5832 67.8182 52.5832 66.6679C52.5832 59.7739 58.1908 54.1681 65.0815 54.1681C66.2319 54.1681 67.1657 53.2343 67.1657 52.0821C67.1657 50.9316 66.2318 49.9977 65.0815 49.9977Z" fill="#3BAFDA"/>
</g>
<defs>
<clipPath id="clip0_51_1345">
<rect width="100" height="100" fill="white" transform="translate(0.5)"/>
</clipPath>
</defs>
</svg>
