<svg width="508" height="466" viewBox="0 0 508 466" fill="none" xmlns="http://www.w3.org/2000/svg">
<path d="M329.509 201.265L455.076 273.566C456.97 274.655 456.734 276.561 454.556 277.815L187.985 432.135C185.807 433.39 182.517 433.532 180.623 432.454L55.0554 360.154C53.1615 359.065 53.3982 357.159 55.5762 355.904L322.146 201.585C324.324 200.318 327.615 200.176 329.509 201.265Z" fill="#180D5B"/>
<path d="M53.7891 326.17L53.8246 334.976L53.8483 334.965C53.8838 335.628 54.2744 336.267 55.103 336.74L180.67 409.041C182.564 410.13 185.855 409.988 188.033 408.721L454.591 254.402C455.787 253.703 456.379 252.816 456.367 251.975L456.391 251.987L456.355 243.192L442.458 250.862L329.557 185.853C327.663 184.764 324.372 184.906 322.194 186.173L66.94 333.935C67.5911 333.213 68.0645 332.692 68.0645 332.645C68.0764 332.526 53.7891 326.17 53.7891 326.17Z" fill="url(#paint0_linear_17_900)"/>
<path d="M187.074 409.159L187.027 373.388L181.298 370.085L181.357 409.325C182.979 409.952 185.24 409.881 187.074 409.159Z" fill="url(#paint1_linear_17_900)"/>
<path d="M329.509 169.151L455.076 241.452C456.97 242.541 456.734 244.447 454.556 245.701L187.985 400.021C185.807 401.276 182.517 401.418 180.623 400.341L55.0554 328.04C53.1615 326.951 53.3982 325.045 55.5762 323.79L322.135 169.471C324.324 168.204 327.615 168.062 329.509 169.151Z" fill="url(#paint2_linear_17_900)"/>
<path d="M180.623 400.329L55.0556 328.028C53.9311 327.377 53.5759 326.442 53.9192 325.53C54.0613 326.063 54.4519 326.548 55.1266 326.939L180.694 399.24C182.588 400.329 185.879 400.187 188.057 398.92L454.615 244.601C455.503 244.092 456.047 243.476 456.272 242.849C456.532 243.808 455.941 244.885 454.544 245.69L187.986 400.021C185.808 401.276 182.517 401.418 180.623 400.329Z" fill="white"/>
<path d="M308.629 177.283L441.026 253.526L201.504 392.185L69.1062 315.954L308.629 177.283Z" fill="#24126A"/>
<path d="M308.629 177.283L441.026 253.526L201.504 392.185L69.1062 315.954L308.629 177.283Z" fill="#24126A"/>
<path opacity="0.5" d="M308.629 177.283L441.026 253.526L201.504 392.185L69.1062 315.954L308.629 177.283Z" fill="url(#paint3_radial_17_900)"/>
<path d="M118.656 351.809L142.65 365.575C143.348 365.978 143.75 366.427 143.312 366.984C143.159 367.173 142.957 367.351 142.685 367.505C141.608 368.132 139.974 368.203 139.039 367.658L114.832 353.726C114.761 353.679 114.655 353.667 114.631 353.596C114.43 352.827 114.501 352.649 115.495 352.069L115.827 351.998C116.904 351.371 117.721 351.264 118.656 351.809Z" fill="#5761D7"/>
<path d="M114.631 353.572C114.773 353.383 114.986 353.205 115.259 353.052C116.336 352.424 117.969 352.353 118.905 352.898L143.111 366.83C143.182 366.877 143.241 366.925 143.301 366.972C143.739 366.416 143.632 365.788 142.934 365.386L118.727 351.454C117.792 350.921 116.158 350.98 115.081 351.607C114.099 352.187 113.933 353.028 114.631 353.572Z" fill="#BCBEFF"/>
<path opacity="0.2" d="M150.095 306.934L141.418 301.927C140.045 301.134 140.045 299.844 141.418 299.051C142.792 298.258 145.029 298.258 146.402 299.051L155.078 304.058C156.452 304.851 156.452 306.141 155.078 306.934C153.705 307.728 151.468 307.728 150.095 306.934Z" fill="#42E8E0"/>
<path opacity="0.6" d="M168.064 317.304L159.387 312.297C158.014 311.504 158.014 310.213 159.387 309.42C160.76 308.627 162.998 308.627 164.371 309.42L173.047 314.427C174.42 315.22 174.42 316.511 173.047 317.304C171.662 318.097 169.437 318.097 168.064 317.304Z" fill="#42E8E0"/>
<path d="M186.021 327.673L177.332 322.666C175.959 321.873 175.959 320.583 177.332 319.789C178.705 318.996 180.943 318.996 182.316 319.789L190.992 324.797C192.365 325.59 192.365 326.88 190.992 327.673C189.631 328.478 187.406 328.478 186.021 327.673Z" fill="#42E8E0"/>
<path opacity="0.6" d="M203.989 338.054L195.313 333.047C193.94 332.254 193.94 330.964 195.313 330.171C196.686 329.377 198.923 329.377 200.296 330.171L208.973 335.178C210.346 335.971 210.346 337.261 208.973 338.054C207.6 338.847 205.374 338.847 203.989 338.054Z" fill="#42E8E0"/>
<path opacity="0.2" d="M221.958 348.423L213.281 343.416C211.908 342.623 211.908 341.333 213.281 340.54C214.654 339.747 216.892 339.747 218.265 340.54L226.941 345.547C228.314 346.34 228.314 347.63 226.941 348.423C225.568 349.216 223.331 349.216 221.958 348.423Z" fill="#42E8E0"/>
<path opacity="0.2" d="M251.302 326.809C291.729 326.809 324.502 307.889 324.502 284.551C324.502 261.212 291.729 242.292 251.302 242.292C210.874 242.292 178.102 261.212 178.102 284.551C178.102 307.889 210.874 326.809 251.302 326.809Z" fill="#42E8E0"/>
<path d="M251.302 308.521C274.235 308.521 292.826 297.789 292.826 284.551C292.826 271.312 274.235 260.581 251.302 260.581C228.369 260.581 209.778 271.312 209.778 284.551C209.778 297.789 228.369 308.521 251.302 308.521Z" fill="#42E8E0"/>
<g opacity="0.3">
<path d="M345.406 135.025C346.318 140.174 350.129 153.1 365.872 162.049C388.28 172.395 403.81 186.007 409.007 201.194C409.374 202.189 409.883 203.514 410.356 204.461C410.912 203.538 410.912 203.538 410.912 201.313V175.804C410.901 160.83 410.06 157.527 408.995 153.349C403.798 138.162 388.268 124.549 365.861 114.204C347.999 108.439 343.666 125.2 345.406 135.025Z" fill="#42E8E0"/>
<path d="M181.061 104.426C204.794 97.5372 232.86 93.6665 262.82 93.9151C266.773 93.9506 270.691 94.0453 274.562 94.2228C300.864 96.6257 310.227 124.407 294.365 136.564C287.086 142.139 278.314 142.08 274.562 142.056C270.691 141.879 266.773 141.784 262.82 141.749C232.86 141.5 204.794 145.383 181.061 152.26C157.103 158.096 155.683 133.747 164.063 118.856C166.88 113.849 172.112 107.279 181.061 104.426Z" fill="#42E8E0"/>
<path d="M109.447 212.534C110.098 204.947 110.619 198.957 118.336 188.517C134.612 164.499 131.322 136.599 122.337 137.878C120.893 138.091 119.378 139.653 118.336 140.671C112.868 147.785 109.766 155.444 109.47 163.434C109.459 163.86 109.447 164.274 109.447 164.689V212.534Z" fill="#42E8E0"/>
</g>
<path d="M304.936 218.422L299.756 220.518L317.659 264.75L322.838 262.654L304.936 218.422Z" fill="#42E8E0"/>
<path d="M206.463 215.186C216.054 215.186 223.828 207.411 223.828 197.821C223.828 188.23 216.054 180.456 206.463 180.456C196.873 180.456 189.098 188.23 189.098 197.821C189.098 207.411 196.873 215.186 206.463 215.186Z" fill="url(#paint4_radial_17_900)"/>
<path d="M296.141 223.507C296.141 257.219 276.065 284.551 251.302 284.551C226.539 284.551 206.463 257.219 206.463 223.507C206.463 189.795 226.539 179.698 251.302 179.698C276.065 179.698 296.141 189.795 296.141 223.507Z" fill="url(#paint5_radial_17_900)"/>
<path d="M296.141 223.507C296.141 257.219 276.065 284.551 251.302 284.551C226.539 284.551 206.463 257.219 206.463 223.507C206.463 189.795 226.539 179.698 251.302 179.698C276.065 179.698 296.141 189.795 296.141 223.507Z" fill="url(#paint6_linear_17_900)"/>
<path d="M251.302 215.493C268.201 215.493 281.901 207.581 281.901 197.821C281.901 188.06 268.201 180.148 251.302 180.148C234.403 180.148 220.703 188.06 220.703 197.821C220.703 207.581 234.403 215.493 251.302 215.493Z" fill="#393091"/>
<path d="M229.664 190.032C241.619 183.131 260.997 183.131 272.94 190.032C277.876 192.885 280.764 196.459 281.628 200.176C282.848 194.909 279.959 189.381 272.94 185.333C260.985 178.432 241.607 178.432 229.664 185.333C222.644 189.381 219.756 194.909 220.975 200.176C221.84 196.471 224.728 192.885 229.664 190.032Z" fill="#453C9E"/>
<path d="M215.98 155.835L221.52 146.294C224.775 142.92 227.379 138.434 228.705 133.924L234.316 124.265L226.255 119.637C225.994 119.459 225.722 119.305 225.45 119.175C223.153 118.086 220.111 118.382 216.761 120.312C209.636 124.431 203.859 134.433 203.859 142.672C203.859 146.779 205.303 149.679 207.635 151.029L215.98 155.835Z" fill="url(#paint7_radial_17_900)"/>
<path d="M234.163 145.264C239.203 136.534 239.205 127.099 234.166 124.19C229.127 121.281 220.957 125.999 215.916 134.729C210.876 143.459 210.875 152.894 215.913 155.803C220.952 158.713 229.123 153.994 234.163 145.264Z" fill="#BCBEFF"/>
<path d="M253.089 201.372C278.343 201.372 298.816 180.899 298.816 155.645C298.816 130.391 278.343 109.919 253.089 109.919C227.835 109.919 207.363 130.391 207.363 155.645C207.363 180.899 227.835 201.372 253.089 201.372Z" fill="url(#paint8_radial_17_900)"/>
<path d="M253.089 201.372C278.343 201.372 298.816 180.899 298.816 155.645C298.816 130.391 278.343 109.919 253.089 109.919C227.835 109.919 207.363 130.391 207.363 155.645C207.363 180.899 227.835 201.372 253.089 201.372Z" fill="url(#paint9_linear_17_900)"/>
<path d="M278.681 186.575L284.221 177.035C287.476 173.661 290.08 169.175 291.406 164.665L297.017 155.006L288.956 150.378C288.695 150.2 288.423 150.046 288.151 149.916C285.854 148.827 282.812 149.123 279.462 151.052C272.336 155.172 266.56 165.174 266.56 173.413C266.56 177.52 268.004 180.42 270.336 181.77L278.681 186.575Z" fill="url(#paint10_radial_17_900)"/>
<path d="M278.681 186.575L284.221 177.035C287.476 173.661 290.08 169.175 291.406 164.665L297.017 155.006L288.956 150.378C288.695 150.2 288.423 150.046 288.151 149.916C285.854 148.827 282.812 149.123 279.462 151.052C272.336 155.172 266.56 165.174 266.56 173.413C266.56 177.52 268.004 180.42 270.336 181.77L278.681 186.575Z" fill="url(#paint11_linear_17_900)"/>
<path d="M296.852 176.01C301.892 167.28 301.894 157.845 296.855 154.936C291.816 152.026 283.646 156.745 278.605 165.475C273.565 174.205 273.564 183.64 278.602 186.549C283.641 189.458 291.812 184.74 296.852 176.01Z" fill="#BCBEFF"/>
<path d="M275.426 178.289C275.426 170.063 281.202 160.049 288.328 155.929C290.802 154.509 293.11 153.976 295.063 154.225C292.98 153.763 290.459 154.248 287.736 155.823C280.61 159.942 274.834 169.944 274.834 178.183C274.834 183.557 277.308 186.848 281.001 187.333C277.639 186.599 275.426 183.379 275.426 178.289Z" fill="white"/>
<path d="M296.969 165.411C296.969 171.294 292.838 178.443 287.748 181.391C282.658 184.338 278.527 181.947 278.527 176.064C278.527 170.181 282.658 163.032 287.748 160.084C292.838 157.137 296.969 159.528 296.969 165.411Z" fill="#393091"/>
<path d="M293.039 158.96C293.998 160.084 294.555 161.765 294.555 163.931C294.555 169.814 290.423 176.964 285.334 179.911C283.357 181.047 281.534 181.391 280.031 181.036C281.676 182.977 284.517 183.261 287.748 181.391C292.838 178.443 296.969 171.294 296.969 165.411C296.969 161.8 295.419 159.516 293.039 158.96Z" fill="#453C9E"/>
<path d="M238.814 177.307C237.642 186.303 230.859 189.12 223.651 183.616C216.442 178.112 211.553 166.346 212.725 157.362C213.897 148.365 220.679 145.548 227.888 151.052C235.097 156.557 239.986 168.323 238.814 177.307Z" fill="#393091"/>
<path d="M232.872 169.53C232.446 172.797 229.984 173.827 227.368 171.826C224.752 169.826 222.976 165.553 223.391 162.286C223.817 159.019 226.279 157.989 228.895 159.989C231.511 161.99 233.286 166.251 232.872 169.53Z" fill="#42E8E0"/>
<path d="M227.119 182.314C219.91 176.81 215.021 165.044 216.193 156.059C216.667 152.39 218.075 149.75 220.076 148.283C216.312 148.638 213.459 151.834 212.737 157.373C211.565 166.37 216.466 178.124 223.662 183.628C227.936 186.895 232.055 187.226 234.943 185.096C232.588 185.309 229.889 184.421 227.119 182.314Z" fill="#453C9E"/>
<path d="M224.278 183.332C217.069 177.828 212.181 166.062 213.352 157.078C213.897 152.911 215.637 150.082 218.075 148.768C215.317 149.904 213.317 152.852 212.737 157.362C211.565 166.358 216.466 178.112 223.662 183.616C227.533 186.576 231.274 187.12 234.091 185.605C231.357 186.741 227.865 186.078 224.278 183.332Z" fill="#42E8E0"/>
<path d="M319.365 222.844C317.506 232.255 308.368 238.374 298.958 236.504C289.547 234.646 283.427 225.507 285.298 216.097C287.168 206.687 296.294 200.567 305.705 202.437C315.103 204.295 321.223 213.434 319.365 222.844Z" fill="url(#paint12_radial_17_900)"/>
<path d="M319.365 222.844C317.506 232.255 308.368 238.374 298.958 236.504C289.547 234.646 283.427 225.507 285.298 216.097C287.168 206.687 296.294 200.567 305.705 202.437C315.103 204.295 321.223 213.434 319.365 222.844Z" fill="url(#paint13_linear_17_900)"/>
<path d="M330.018 277.01C329.036 285.261 321.744 300.898 315.151 300.104C308.558 299.323 305.148 282.408 306.131 274.158C307.113 265.907 313.257 259.859 319.862 260.64C326.455 261.433 331.012 268.76 330.018 277.01Z" fill="url(#paint14_radial_17_900)"/>
<path d="M330.018 277.01C329.036 285.261 321.744 300.898 315.151 300.104C308.558 299.323 305.148 282.408 306.131 274.158C307.113 265.907 313.257 259.859 319.862 260.64C326.455 261.433 331.012 268.76 330.018 277.01Z" fill="url(#paint15_linear_17_900)"/>
<path d="M160.512 223.921C159.506 223.921 158.535 223.377 158.038 222.418C157.328 221.045 157.849 219.364 159.222 218.642L195.076 199.88C196.449 199.158 198.13 199.691 198.852 201.064C199.563 202.437 199.042 204.118 197.669 204.84L161.814 223.602C161.388 223.815 160.95 223.921 160.512 223.921Z" fill="#42E8E0"/>
<path d="M161.139 234.338C153.848 238.327 136.897 241.487 133.701 235.664C130.505 229.84 142.283 217.245 149.575 213.244C156.866 209.255 165.353 210.735 168.549 216.559C171.745 222.382 168.431 230.337 161.139 234.338Z" fill="url(#paint16_radial_17_900)"/>
<path d="M161.139 234.338C153.848 238.327 136.897 241.487 133.701 235.664C130.505 229.84 142.283 217.245 149.575 213.244C156.866 209.255 165.353 210.735 168.549 216.559C171.745 222.382 168.431 230.337 161.139 234.338Z" fill="url(#paint17_linear_17_900)"/>
<g opacity="0.5">
<path d="M126.966 226.561C125.877 235.344 121.319 240.564 116.537 234.03C110.394 225.638 109.802 217.446 109.447 212.546V164.712C109.447 172.193 111.933 179.414 116.537 186.197C126.658 202.922 127.853 219.435 126.966 226.561Z" fill="#42E8E0"/>
<path d="M268.987 235.32C265.211 235.427 261.399 235.462 257.552 235.427C227.474 235.178 199.61 230.81 176.35 223.495C153.114 217.293 151.717 241.594 159.826 256.615C165.602 267.304 173.415 270.24 176.35 271.341C199.61 278.656 227.474 283.024 257.552 283.272C261.399 283.308 265.211 283.272 268.987 283.166C296.283 281.153 303.433 254.934 290.672 242.707C287.109 239.286 280.457 235.238 268.987 235.32Z" fill="#42E8E0"/>
<path d="M410.901 197.181C410.77 217.873 409.551 221.637 408.012 226.395C401.62 241.476 385.037 254.804 361.824 264.759C341.5 270.749 335.889 249.643 344.152 233.983C349.774 223.329 358.522 218.678 361.824 216.926C385.037 206.971 401.62 193.642 408.012 178.562C408.486 177.556 409.137 176.23 409.764 175.318C409.918 175.295 410.131 175.271 410.285 175.247C410.676 176.348 410.841 176.81 410.889 182.456V197.181H410.901Z" fill="#42E8E0"/>
</g>
<path opacity="0.8" d="M429.011 181.426C427.662 181.426 426.573 180.337 426.573 178.988V95.3947C426.573 94.0453 427.662 92.9563 429.011 92.9563C430.361 92.9563 431.45 94.0453 431.45 95.3947V178.988C431.45 180.337 430.361 181.426 429.011 181.426Z" fill="url(#paint18_linear_17_900)"/>
<path opacity="0.8" d="M336.091 123.33C334.741 123.33 333.652 122.241 333.652 120.892V37.2985C333.652 35.9491 334.741 34.8601 336.091 34.8601C337.44 34.8601 338.529 35.9491 338.529 37.2985V120.892C338.529 122.229 337.44 123.33 336.091 123.33Z" fill="url(#paint19_linear_17_900)"/>
<path opacity="0.8" d="M145.313 198.306C143.964 198.306 142.875 197.217 142.875 195.868V112.274C142.875 110.925 143.964 109.836 145.313 109.836C146.663 109.836 147.752 110.925 147.752 112.274V195.868C147.763 197.217 146.663 198.306 145.313 198.306Z" fill="url(#paint20_linear_17_900)"/>
<path opacity="0.8" d="M69.1063 258.805C67.7332 258.805 66.6086 257.692 66.6086 256.307V61.6354C66.6086 60.2623 67.7213 59.1378 69.1063 59.1378C70.4794 59.1378 71.6039 60.2505 71.6039 61.6354V256.307C71.6039 257.692 70.4794 258.805 69.1063 258.805Z" fill="url(#paint21_linear_17_900)"/>
<path d="M179.226 63.3282C179.226 65.3405 177.593 66.974 175.58 66.974C173.568 66.974 171.935 65.3405 171.935 63.3282C171.935 61.3159 173.568 59.6823 175.58 59.6823C177.593 59.6823 179.226 61.3159 179.226 63.3282Z" fill="#42E8E0"/>
<path d="M320.809 23.023C322.774 24.988 322.774 28.184 320.809 30.1489C318.844 32.1139 315.648 32.1139 313.683 30.1489C311.718 28.184 311.718 24.988 313.683 23.023C315.648 21.0581 318.844 21.0581 320.809 23.023Z" fill="#42E8E0"/>
<path opacity="0.5" d="M317.246 143.643C317.246 144.921 316.205 145.963 314.926 145.963C313.648 145.963 312.606 144.921 312.606 143.643C312.606 142.364 313.648 141.322 314.926 141.322C316.205 141.322 317.246 142.364 317.246 143.643Z" fill="#42E8E0"/>
<path opacity="0.5" d="M147.633 260.581C147.633 261.859 146.592 262.901 145.313 262.901C144.035 262.901 142.993 261.859 142.993 260.581C142.993 259.302 144.035 258.261 145.313 258.261C146.592 258.261 147.633 259.29 147.633 260.581Z" fill="#42E8E0"/>
<path opacity="0.8" d="M191.952 169.626C192.619 169.626 193.159 169.085 193.159 168.418C193.159 167.751 192.619 167.21 191.952 167.21C191.284 167.21 190.744 167.751 190.744 168.418C190.744 169.085 191.284 169.626 191.952 169.626Z" fill="#42E8E0"/>
<defs>
<linearGradient id="paint0_linear_17_900" x1="209.937" y1="-164.395" x2="262.712" y2="365.711" gradientUnits="userSpaceOnUse">
<stop stop-color="#5761D7"/>
<stop offset="0.1779" stop-color="#5C66D9"/>
<stop offset="0.3876" stop-color="#6A73DF"/>
<stop offset="0.6134" stop-color="#8289E8"/>
<stop offset="0.849" stop-color="#A3A7F5"/>
<stop offset="1" stop-color="#BCBEFF"/>
</linearGradient>
<linearGradient id="paint1_linear_17_900" x1="193.344" y1="384.321" x2="173.509" y2="395.804" gradientUnits="userSpaceOnUse">
<stop stop-color="#C0BFF6"/>
<stop offset="0.2938" stop-color="#C5C4F7"/>
<stop offset="0.6399" stop-color="#D3D2F9"/>
<stop offset="1" stop-color="#E9E9FD"/>
</linearGradient>
<linearGradient id="paint2_linear_17_900" x1="392.293" y1="205.296" x2="255.245" y2="443.304" gradientUnits="userSpaceOnUse">
<stop stop-color="#C0BFF6"/>
<stop offset="0.2938" stop-color="#C5C4F7"/>
<stop offset="0.6399" stop-color="#D3D2F9"/>
<stop offset="1" stop-color="#E9E9FD"/>
</linearGradient>
<radialGradient id="paint3_radial_17_900" cx="0" cy="0" r="1" gradientUnits="userSpaceOnUse" gradientTransform="translate(251.672 287.821) scale(178.586 99.0259)">
<stop stop-color="#42E8E0"/>
<stop offset="0.1205" stop-color="#39BDC0"/>
<stop offset="0.2841" stop-color="#2F899A"/>
<stop offset="0.4453" stop-color="#265F7B"/>
<stop offset="0.6004" stop-color="#1F3D62"/>
<stop offset="0.7478" stop-color="#1A2550"/>
<stop offset="0.8845" stop-color="#171746"/>
<stop offset="1" stop-color="#161242"/>
</radialGradient>
<radialGradient id="paint4_radial_17_900" cx="0" cy="0" r="1" gradientUnits="userSpaceOnUse" gradientTransform="translate(289.531 142.338) rotate(11.1976) scale(100.249)">
<stop stop-color="#C0BFF6"/>
<stop offset="1" stop-color="#393091"/>
</radialGradient>
<radialGradient id="paint5_radial_17_900" cx="0" cy="0" r="1" gradientUnits="userSpaceOnUse" gradientTransform="translate(277.762 214.364) scale(77.0585 104.897)">
<stop stop-color="#C0BFF6"/>
<stop offset="1" stop-color="#393091"/>
</radialGradient>
<linearGradient id="paint6_linear_17_900" x1="251.305" y1="284.551" x2="251.305" y2="179.697" gradientUnits="userSpaceOnUse">
<stop stop-color="#42E8E0"/>
<stop offset="0.00467455" stop-color="#42E6DF"/>
<stop offset="0.1358" stop-color="#40B6CB"/>
<stop offset="0.2707" stop-color="#3E8DB9"/>
<stop offset="0.4074" stop-color="#3C6BAA"/>
<stop offset="0.5467" stop-color="#3B519F"/>
<stop offset="0.6893" stop-color="#3A3F97"/>
<stop offset="0.8375" stop-color="#393493"/>
<stop offset="1" stop-color="#393091"/>
</linearGradient>
<radialGradient id="paint7_radial_17_900" cx="0" cy="0" r="1" gradientUnits="userSpaceOnUse" gradientTransform="translate(206.158 84.6647) scale(54.2653 54.2653)">
<stop stop-color="#C0BFF6"/>
<stop offset="1" stop-color="#393091"/>
</radialGradient>
<radialGradient id="paint8_radial_17_900" cx="0" cy="0" r="1" gradientUnits="userSpaceOnUse" gradientTransform="translate(281.624 148.876) scale(77.2948 77.2948)">
<stop stop-color="#C0BFF6"/>
<stop offset="1" stop-color="#393091"/>
</radialGradient>
<linearGradient id="paint9_linear_17_900" x1="246.718" y1="200.943" x2="259.449" y2="110.359" gradientUnits="userSpaceOnUse">
<stop stop-color="#42E8E0"/>
<stop offset="0.00467455" stop-color="#42E6DF"/>
<stop offset="0.1358" stop-color="#40B6CB"/>
<stop offset="0.2707" stop-color="#3E8DB9"/>
<stop offset="0.4074" stop-color="#3C6BAA"/>
<stop offset="0.5467" stop-color="#3B519F"/>
<stop offset="0.6893" stop-color="#3A3F97"/>
<stop offset="0.8375" stop-color="#393493"/>
<stop offset="1" stop-color="#393091"/>
</linearGradient>
<radialGradient id="paint10_radial_17_900" cx="0" cy="0" r="1" gradientUnits="userSpaceOnUse" gradientTransform="translate(281.005 148.054) scale(36.7079 36.7078)">
<stop stop-color="#C0BFF6"/>
<stop offset="1" stop-color="#393091"/>
</radialGradient>
<linearGradient id="paint11_linear_17_900" x1="273.614" y1="184.736" x2="286.513" y2="149.297" gradientUnits="userSpaceOnUse">
<stop stop-color="#42E8E0"/>
<stop offset="0.00467455" stop-color="#42E6DF"/>
<stop offset="0.1358" stop-color="#40B6CB"/>
<stop offset="0.2707" stop-color="#3E8DB9"/>
<stop offset="0.4074" stop-color="#3C6BAA"/>
<stop offset="0.5467" stop-color="#3B519F"/>
<stop offset="0.6893" stop-color="#3A3F97"/>
<stop offset="0.8375" stop-color="#393493"/>
<stop offset="1" stop-color="#393091"/>
</linearGradient>
<radialGradient id="paint12_radial_17_900" cx="0" cy="0" r="1" gradientUnits="userSpaceOnUse" gradientTransform="translate(312.614 208.138) rotate(11.1976) scale(36.2322 36.2322)">
<stop stop-color="#C0BFF6"/>
<stop offset="1" stop-color="#393091"/>
</radialGradient>
<linearGradient id="paint13_linear_17_900" x1="288.275" y1="229.681" x2="316.374" y2="209.264" gradientUnits="userSpaceOnUse">
<stop stop-color="#42E8E0"/>
<stop offset="0.00467455" stop-color="#42E6DF"/>
<stop offset="0.1358" stop-color="#40B6CB"/>
<stop offset="0.2707" stop-color="#3E8DB9"/>
<stop offset="0.4074" stop-color="#3C6BAA"/>
<stop offset="0.5467" stop-color="#3B519F"/>
<stop offset="0.6893" stop-color="#3A3F97"/>
<stop offset="0.8375" stop-color="#393493"/>
<stop offset="1" stop-color="#393091"/>
</linearGradient>
<radialGradient id="paint14_radial_17_900" cx="0" cy="0" r="1" gradientUnits="userSpaceOnUse" gradientTransform="translate(334.537 263.296) rotate(6.80284) scale(30.8017 50.7391)">
<stop stop-color="#C0BFF6"/>
<stop offset="1" stop-color="#393091"/>
</radialGradient>
<linearGradient id="paint15_linear_17_900" x1="305.564" y1="278.952" x2="329.451" y2="281.802" gradientUnits="userSpaceOnUse">
<stop stop-color="#42E8E0"/>
<stop offset="0.00467455" stop-color="#42E6DF"/>
<stop offset="0.1358" stop-color="#40B6CB"/>
<stop offset="0.2707" stop-color="#3E8DB9"/>
<stop offset="0.4074" stop-color="#3C6BAA"/>
<stop offset="0.5467" stop-color="#3B519F"/>
<stop offset="0.6893" stop-color="#3A3F97"/>
<stop offset="0.8375" stop-color="#393493"/>
<stop offset="1" stop-color="#393091"/>
</linearGradient>
<radialGradient id="paint16_radial_17_900" cx="0" cy="0" r="1" gradientUnits="userSpaceOnUse" gradientTransform="translate(182.58 213.685) rotate(61.2704) scale(30.8019 50.7401)">
<stop stop-color="#C0BFF6"/>
<stop offset="1" stop-color="#393091"/>
</radialGradient>
<linearGradient id="paint17_linear_17_900" x1="168.299" y1="225.617" x2="141.721" y2="218.793" gradientUnits="userSpaceOnUse">
<stop stop-color="#42E8E0"/>
<stop offset="0.00467455" stop-color="#42E6DF"/>
<stop offset="0.1358" stop-color="#40B6CB"/>
<stop offset="0.2707" stop-color="#3E8DB9"/>
<stop offset="0.4074" stop-color="#3C6BAA"/>
<stop offset="0.5467" stop-color="#3B519F"/>
<stop offset="0.6893" stop-color="#3A3F97"/>
<stop offset="0.8375" stop-color="#393493"/>
<stop offset="1" stop-color="#393091"/>
</linearGradient>
<linearGradient id="paint18_linear_17_900" x1="429.01" y1="181.429" x2="429.01" y2="92.9507" gradientUnits="userSpaceOnUse">
<stop stop-color="#161242"/>
<stop offset="0.1155" stop-color="#171746"/>
<stop offset="0.2522" stop-color="#1A2550"/>
<stop offset="0.3996" stop-color="#1F3D62"/>
<stop offset="0.5547" stop-color="#265F7B"/>
<stop offset="0.7159" stop-color="#2F899A"/>
<stop offset="0.8795" stop-color="#39BDC0"/>
<stop offset="1" stop-color="#42E8E0"/>
</linearGradient>
<linearGradient id="paint19_linear_17_900" x1="336.089" y1="123.328" x2="336.089" y2="34.8504" gradientUnits="userSpaceOnUse">
<stop stop-color="#161242"/>
<stop offset="0.1155" stop-color="#171746"/>
<stop offset="0.2522" stop-color="#1A2550"/>
<stop offset="0.3996" stop-color="#1F3D62"/>
<stop offset="0.5547" stop-color="#265F7B"/>
<stop offset="0.7159" stop-color="#2F899A"/>
<stop offset="0.8795" stop-color="#39BDC0"/>
<stop offset="1" stop-color="#42E8E0"/>
</linearGradient>
<linearGradient id="paint20_linear_17_900" x1="145.316" y1="198.309" x2="145.316" y2="109.831" gradientUnits="userSpaceOnUse">
<stop stop-color="#161242"/>
<stop offset="0.1155" stop-color="#171746"/>
<stop offset="0.2522" stop-color="#1A2550"/>
<stop offset="0.3996" stop-color="#1F3D62"/>
<stop offset="0.5547" stop-color="#265F7B"/>
<stop offset="0.7159" stop-color="#2F899A"/>
<stop offset="0.8795" stop-color="#39BDC0"/>
<stop offset="1" stop-color="#42E8E0"/>
</linearGradient>
<linearGradient id="paint21_linear_17_900" x1="69.1035" y1="258.81" x2="69.1035" y2="59.1416" gradientUnits="userSpaceOnUse">
<stop stop-color="#161242"/>
<stop offset="0.1155" stop-color="#171746"/>
<stop offset="0.2522" stop-color="#1A2550"/>
<stop offset="0.3996" stop-color="#1F3D62"/>
<stop offset="0.5547" stop-color="#265F7B"/>
<stop offset="0.7159" stop-color="#2F899A"/>
<stop offset="0.8795" stop-color="#39BDC0"/>
<stop offset="1" stop-color="#42E8E0"/>
</linearGradient>
</defs>
</svg>
