<svg xmlns="http://www.w3.org/2000/svg" width="36" height="38" viewBox="0 0 36 38" fill="none">
  <path d="M26.2659 26.1302H19.2591C17.1948 26.1302 15.2733 23.9785 15.2733 21.5296V19.7538H26.1824C27.0289 19.7551 27.8413 19.4202 28.4409 18.8227C29.0406 18.2252 29.3785 17.414 29.3803 16.5675C29.3793 15.7208 29.042 14.9092 28.4427 14.3112C27.8433 13.7131 27.031 13.3776 26.1843 13.3784H15.2723V10.228C15.2723 8.44548 13.9357 7 12.1706 7C10.4065 7 8.97461 8.44548 8.97461 10.228V21.5286C8.97461 27.5805 13.5257 32.4814 19.1512 32.4814H26.1552C27.9232 32.4814 29.3803 31.0602 29.3803 29.2776C29.3803 27.4951 28.03 26.1302 26.264 26.1302H26.2659Z" fill="url(#paint0_linear_106_1162)"/>
  <defs>
    <linearGradient id="paint0_linear_106_1162" x1="8.97461" y1="12.7912" x2="30.2864" y2="14.2406" gradientUnits="userSpaceOnUse">
      <stop offset="0.0695937" stop-color="#627FFF"/>
      <stop offset="0.955752" stop-color="#865BFF"/>
    </linearGradient>
  </defs>
</svg>