<svg width="101" height="100" viewBox="0 0 101 100" fill="none" xmlns="http://www.w3.org/2000/svg">
<g id="time-hour-svgrepo-com 1" clip-path="url(#clip0_51_1324)">
<path id="Vector" d="M95.9545 36.3637H89.0791C88.5978 35.0037 88.0443 33.6687 87.4197 32.3648L92.2834 27.5012C94.0586 25.726 94.0586 22.848 92.2834 21.073L79.4273 8.21641C78.575 7.36406 77.4189 6.88496 76.2131 6.88496C75.0074 6.88496 73.8512 7.36367 72.9992 8.21641L68.1352 13.0801C66.8312 12.4559 65.4963 11.902 64.1363 11.4207V4.54551C64.1363 2.03516 62.1012 0 59.5908 0H50.5H41.4092C39.9971 0 38.7355 0.643945 37.9016 1.6543C37.5309 2.10332 37.2449 2.62461 37.068 3.19395C36.9352 3.6207 36.8637 4.0748 36.8637 4.54551V11.4207C35.8438 11.7816 34.8379 12.1834 33.8488 12.6252C33.5191 12.7725 33.1912 12.924 32.8652 13.0801L28.0014 8.21641C27.8904 8.10547 27.7754 8.00156 27.6562 7.9043C27.4182 7.70996 27.165 7.54375 26.9012 7.40527C26.7693 7.33594 26.6346 7.27344 26.4979 7.21797C26.0875 7.05156 25.6578 6.94766 25.223 6.90586C23.9191 6.78105 22.5715 7.21797 21.5734 8.21641L8.7168 21.0729C7.86406 21.9252 7.38535 23.0816 7.38535 24.2871C7.38535 24.4377 7.39297 24.5877 7.40742 24.7361C7.43672 25.0334 7.49551 25.3258 7.58164 25.6088C7.62461 25.7504 7.67461 25.8897 7.73105 26.0264C7.90078 26.4361 8.13047 26.8209 8.41445 27.1676C8.50898 27.283 8.60996 27.3945 8.7166 27.501L13.5805 32.3646C13.4244 32.6906 13.2727 33.0186 13.1254 33.3482C12.8309 34.0076 12.5541 34.6746 12.2957 35.3479C12.1664 35.6846 12.0414 36.023 11.9211 36.3631H5.04551C3.6334 36.3631 2.37188 37.007 1.53789 38.0174C1.16719 38.4664 0.88125 38.9877 0.704297 39.557C0.571484 39.9842 0.5 40.4385 0.5 40.9092V59.091C0.5 61.6014 2.53516 63.6365 5.04551 63.6365H11.9213C12.4025 64.9965 12.9561 66.3314 13.5805 67.6354L8.7166 72.499C8.07715 73.1385 7.64805 73.9486 7.47324 74.8223C7.41504 75.1135 7.38516 75.4117 7.38516 75.7131C7.38516 76.4668 7.57207 77.2006 7.9207 77.8537C8.12988 78.2453 8.39707 78.6076 8.7168 78.9273L21.5738 91.7838C21.6848 91.8947 21.7998 91.9986 21.9189 92.0959C23.5854 93.4551 25.9904 93.4551 27.6568 92.0959C27.776 91.999 27.891 91.8949 28.002 91.7838L32.8658 86.9201C34.1695 87.5443 35.5043 88.0982 36.8641 88.5795V95.4547C36.8641 97.965 38.8992 100 41.4096 100H50.5H59.5908C62.1012 100 64.1363 97.965 64.1363 95.4547V88.5795C65.4963 88.0982 66.8314 87.5443 68.1352 86.9201L72.999 91.7838C74.7738 93.5586 77.6521 93.5586 79.4271 91.7838L92.2836 78.9273C94.0588 77.1521 94.0588 74.2742 92.2836 72.4992L87.4199 67.6356C88.0445 66.3316 88.5984 64.9965 89.0793 63.6367H95.9545C98.4648 63.6367 100.5 61.6016 100.5 59.0912V40.9094C100.5 38.3988 98.4648 36.3637 95.9545 36.3637Z" fill="#BDFDFF"/>
<path id="Vector_2" d="M66.4005 48.4848H52.0149V34.0986C52.0149 33.9354 52.0056 33.7744 51.9886 33.6156C51.9841 33.5717 51.9747 33.5293 51.9688 33.4855C51.9534 33.3703 51.9368 33.2555 51.9124 33.1434C51.903 33.0998 51.8899 33.0572 51.8794 33.0143C51.8519 32.9033 51.8233 32.7928 51.7878 32.685C51.7757 32.648 51.7608 32.6125 51.7478 32.5762C51.7075 32.4631 51.6647 32.3514 51.6159 32.2426C51.6034 32.215 51.5892 32.1881 51.5763 32.1607C51.5212 32.0447 51.4626 31.9305 51.3981 31.8199C51.3876 31.8018 51.3763 31.7838 51.3653 31.766C51.294 31.6479 51.2185 31.5324 51.1368 31.4215C51.1298 31.4117 51.1224 31.4021 51.1153 31.3924C51.0271 31.2744 50.9341 31.1605 50.8356 31.0521C50.8325 31.0488 50.8292 31.0455 50.8265 31.0422C50.7228 30.9289 50.614 30.8203 50.4997 30.718C50.4009 30.6295 50.2981 30.5453 50.1919 30.4656C50.1876 30.4625 50.1841 30.4596 50.1798 30.4564C50.0782 30.3805 49.9728 30.3088 49.8653 30.2416C49.8528 30.234 49.8405 30.2268 49.8284 30.2191C49.7272 30.157 49.6233 30.0992 49.5175 30.0451C49.4938 30.033 49.4696 30.0221 49.446 30.0105C49.3483 29.9629 49.2497 29.9182 49.1483 29.8775C49.1101 29.8623 49.071 29.8494 49.0323 29.8352C48.9417 29.8018 48.8505 29.7693 48.7577 29.7416C48.7017 29.7252 48.6444 29.7123 48.588 29.698C48.5079 29.6777 48.4282 29.6562 48.3468 29.6402C48.2665 29.6244 48.1843 29.6145 48.1024 29.6029C48.0407 29.5941 47.9794 29.5826 47.9167 29.5762C47.7698 29.5619 47.6206 29.5537 47.4698 29.5537C44.9595 29.5537 42.9243 31.5889 42.9243 34.0992V53.0305C42.9243 55.5408 44.9595 57.576 47.4698 57.576H50.5001H66.4007C68.911 57.576 70.9462 55.5408 70.9462 53.0305C70.9462 50.5201 68.9108 48.4848 66.4005 48.4848Z" fill="#2633D8"/>
<g id="Group">
<path id="Vector_3" d="M51.9126 33.1436C51.9368 33.2557 51.9534 33.3705 51.969 33.4857C51.9536 33.3705 51.9366 33.2561 51.9126 33.1436Z" fill="#C3C3C7"/>
<path id="Vector_4" d="M51.7881 32.6851C51.8232 32.7927 51.852 32.9037 51.8797 33.0144C51.8523 32.9033 51.8232 32.7929 51.7881 32.6851Z" fill="#C3C3C7"/>
<path id="Vector_5" d="M50.8357 31.0521C50.9341 31.1605 51.0273 31.2746 51.1154 31.3924C51.0275 31.2746 50.9345 31.1609 50.8357 31.0521Z" fill="#C3C3C7"/>
<path id="Vector_6" d="M51.137 31.4214C51.2184 31.5324 51.2942 31.6478 51.3655 31.766C51.2946 31.6476 51.2186 31.5328 51.137 31.4214Z" fill="#C3C3C7"/>
<path id="Vector_7" d="M50.8268 31.0422C50.723 30.9285 50.6146 30.8203 50.5 30.718C50.6143 30.8203 50.723 30.9287 50.8268 31.0422Z" fill="#C3C3C7"/>
<path id="Vector_8" d="M51.6165 32.2427C51.6653 32.3515 51.7083 32.4634 51.7485 32.5763C51.7079 32.4632 51.6649 32.3517 51.6165 32.2427Z" fill="#C3C3C7"/>
<path id="Vector_9" d="M51.3984 31.8199C51.4629 31.9304 51.5215 32.0447 51.5766 32.1607C51.5215 32.0449 51.4631 31.9308 51.3984 31.8199Z" fill="#C3C3C7"/>
</g>
<path id="Vector_10" d="M5.04551 36.3637C2.53516 36.3637 0.5 38.3988 0.5 40.9092V59.091C0.5 61.6014 2.53516 63.6365 5.04551 63.6365H11.9209C12.4021 64.9965 12.9557 66.3314 13.5803 67.6354L8.71641 72.499C7.86367 73.3518 7.38496 74.5078 7.38496 75.7133C7.38496 76.9189 7.86367 78.0752 8.71641 78.9275L21.5734 91.784C23.3482 93.5588 26.2266 93.5588 28.0016 91.784L32.8654 86.9203C34.1691 87.5445 35.5039 88.0984 36.8637 88.5797V95.4549C36.8637 97.9652 38.8988 100 41.4092 100H50.5V57.5758H47.4697C44.9594 57.5758 42.9242 55.5406 42.9242 53.0303V34.0988C42.9242 31.5885 44.9594 29.5533 47.4697 29.5533C47.6207 29.5533 47.7693 29.5615 47.9166 29.5758C47.9793 29.5822 48.0406 29.5938 48.1023 29.6025C48.1842 29.6141 48.2662 29.624 48.3467 29.6398C48.4285 29.6559 48.5076 29.6773 48.5879 29.6977C48.6445 29.7121 48.7018 29.7246 48.7578 29.7412C48.8512 29.7687 48.9418 29.8016 49.0324 29.8348C49.0713 29.849 49.1104 29.8617 49.1484 29.8771C49.2496 29.9174 49.3484 29.9629 49.4461 30.0102C49.4697 30.0217 49.4939 30.0326 49.5176 30.0447C49.624 30.0986 49.727 30.1568 49.8285 30.2188C49.8406 30.2264 49.8531 30.2336 49.8654 30.2412C49.9732 30.3084 50.0781 30.3803 50.1799 30.4564C50.1842 30.4596 50.1877 30.4625 50.192 30.4656C50.2986 30.5457 50.4008 30.6295 50.4998 30.718V0H41.409C38.8986 0 36.8635 2.03516 36.8635 4.54551V11.4207C35.5035 11.902 34.1686 12.4559 32.865 13.0801L28.0012 8.21641C26.2264 6.44121 23.348 6.44121 21.573 8.21641L8.71641 21.0729C7.86367 21.9252 7.38496 23.0816 7.38496 24.2871C7.38496 25.4926 7.86367 26.6486 8.71641 27.5014L13.5803 32.365C12.9557 33.6689 12.4021 35.0039 11.9209 36.3639L5.04551 36.3637Z" fill="#9BC9FF"/>
<g id="Group_2">
<path id="Vector_11" d="M49.5176 30.0449C49.6236 30.0988 49.7273 30.157 49.8285 30.2189C49.727 30.157 49.6236 30.0988 49.5176 30.0449Z" fill="#A9A8AE"/>
<path id="Vector_12" d="M50.5 30.718C50.4011 30.6295 50.2988 30.5453 50.1921 30.4656C50.2984 30.5451 50.4011 30.6293 50.5 30.718Z" fill="#A9A8AE"/>
<path id="Vector_13" d="M47.9165 29.576C47.9792 29.5824 48.0405 29.594 48.1022 29.6027C48.0405 29.594 47.9792 29.582 47.9165 29.576Z" fill="#A9A8AE"/>
<path id="Vector_14" d="M49.1482 29.8774C49.2494 29.918 49.3482 29.9629 49.4459 30.0104C49.3482 29.9631 49.2494 29.918 49.1482 29.8774Z" fill="#A9A8AE"/>
<path id="Vector_15" d="M49.8652 30.2412C49.9729 30.3088 50.0783 30.3803 50.1797 30.4564C50.0779 30.3803 49.9734 30.3084 49.8652 30.2412Z" fill="#A9A8AE"/>
<path id="Vector_16" d="M48.7576 29.7412C48.8505 29.7691 48.9416 29.8016 49.0322 29.8348C48.9416 29.8018 48.8509 29.7688 48.7576 29.7412Z" fill="#A9A8AE"/>
<path id="Vector_17" d="M48.3467 29.6401C48.4279 29.6561 48.5078 29.6776 48.5879 29.6979C48.5076 29.6776 48.4281 29.6557 48.3467 29.6401Z" fill="#A9A8AE"/>
</g>
</g>
<defs>
<clipPath id="clip0_51_1324">
<rect width="100" height="100" fill="white" transform="translate(0.5)"/>
</clipPath>
</defs>
</svg>
