<svg width="21" height="21" viewBox="0 0 21 21" fill="none" xmlns="http://www.w3.org/2000/svg">
<path fill-rule="evenodd" clip-rule="evenodd" d="M5.16659 6.70825C4.93447 6.70825 4.71287 6.80507 4.55515 6.97538C4.39744 7.14569 4.31791 7.37406 4.33571 7.6055L4.99148 16.1306C5.12507 17.8672 6.57321 19.2083 8.315 19.2083H12.0182C13.76 19.2083 15.2081 17.8672 15.3417 16.1306L15.9975 7.6055C16.0153 7.37406 15.9357 7.14569 15.778 6.97538C15.6203 6.80507 15.3987 6.70825 15.1666 6.70825H5.16659Z" fill="#D42620"/>
<path fill-rule="evenodd" clip-rule="evenodd" d="M13.4999 3.37501L15.9999 3.37502C16.4601 3.37502 16.8332 3.74812 16.8332 4.20835C16.8332 4.66859 16.4601 5.04169 15.9999 5.04169H4.33321C3.87297 5.04169 3.49988 4.66859 3.49988 4.20835C3.49988 3.74812 3.87297 3.37502 4.33321 3.37502H6.83321V3.37501L8.37053 3.37501C8.69333 3.37501 8.99478 3.21369 9.17383 2.9451C9.64609 2.23672 10.687 2.23672 11.1593 2.9451C11.3383 3.21369 11.6398 3.37501 11.9626 3.37501L13.4999 3.37501Z" fill="#D42620"/>
</svg>
