<svg width="25" height="24" viewBox="0 0 25 24" fill="none" xmlns="http://www.w3.org/2000/svg">
<path fill-rule="evenodd" clip-rule="evenodd" d="M12.5011 5.9513C12.5011 4.88247 11.6059 3.86067 10.3726 4.01565C8.98596 4.18989 7.65329 4.68447 6.48275 5.4666C4.9982 6.45855 3.84114 7.86843 3.15788 9.51797C2.47461 11.1675 2.29584 12.9826 2.64417 14.7338C2.99249 16.4849 3.85227 18.0934 5.11477 19.3559C6.37727 20.6184 7.9858 21.4782 9.73694 21.8265C11.4881 22.1749 13.3032 21.9961 14.9527 21.3128C16.6023 20.6296 18.0122 19.4725 19.0041 17.988C19.7862 16.8174 20.2808 15.4847 20.4551 14.0981C20.61 12.8648 19.5882 11.9696 18.5194 11.9696H13.5042C12.9502 11.9696 12.5011 11.5205 12.5011 10.9665V5.9513Z" fill="white"/>
<path fill-rule="evenodd" clip-rule="evenodd" d="M15.6243 2.02043C14.3693 1.83992 13.4707 2.88595 13.4707 3.95207V9.89247C13.4707 10.5041 13.9666 11 14.5782 11L20.5186 11C21.5848 11 22.6308 10.1014 22.4503 8.84637C22.3549 8.18302 22.1768 7.53266 21.9192 6.91073C21.5144 5.93348 20.9211 5.04552 20.1731 4.29757C19.4252 3.54962 18.5372 2.9563 17.56 2.55151C16.938 2.2939 16.2877 2.11585 15.6243 2.02043Z" fill="white"/>
</svg>
