
<svg width="25" height="24" viewBox="0 0 25 24" fill="none" xmlns="http://www.w3.org/2000/svg">
<path fill-rule="evenodd" clip-rule="evenodd" d="M19.0918 2.65368C20.676 2.20107 22.1405 3.66566 21.6879 5.2498L17.6883 19.2485C17.0216 21.5819 13.9047 22.0202 12.6203 19.9612L9.8229 15.4764C9.58085 15.0883 9.25328 14.7608 8.86522 14.5187L4.38047 11.7213C2.32142 10.4369 2.75972 7.32 5.09313 6.65331L19.0918 2.65368ZM19.6939 4.57425C19.6837 4.57141 19.6682 4.56903 19.6413 4.57673L5.64257 8.57636C4.97589 8.76684 4.85066 9.65739 5.43896 10.0244L9.92371 12.8218C10.5705 13.2252 11.1164 13.7712 11.5198 14.4179L14.3173 18.9027C14.6842 19.491 15.5748 19.3657 15.7653 18.699L19.7649 4.70036C19.7726 4.67341 19.7702 4.65793 19.7674 4.64773C19.7636 4.63434 19.7549 4.61767 19.7394 4.60217C19.7239 4.58668 19.7073 4.57798 19.6939 4.57425Z" fill="white"/>
<path fill-rule="evenodd" clip-rule="evenodd" d="M14.9057 9.43498C15.2963 9.82551 15.2963 10.4587 14.9057 10.8492L11.3702 14.3847C10.9797 14.7753 10.3465 14.7753 9.95598 14.3847C9.56545 13.9942 9.56545 13.361 9.95598 12.9705L13.4915 9.43498C13.882 9.04446 14.5152 9.04446 14.9057 9.43498Z" fill="white"/>
</svg>
