<svg width="25" height="24" viewBox="0 0 25 24" fill="none" xmlns="http://www.w3.org/2000/svg">
<path fill-rule="evenodd" clip-rule="evenodd" d="M12.4707 4C10.8138 4 9.4707 5.34315 9.4707 7C9.4707 8.65685 10.8138 10 12.4707 10C14.1276 10 15.4707 8.65685 15.4707 7C15.4707 5.34315 14.1276 4 12.4707 4ZM7.4707 7C7.4707 4.23858 9.70928 2 12.4707 2C15.2321 2 17.4707 4.23858 17.4707 7C17.4707 9.76142 15.2321 12 12.4707 12C9.70928 12 7.4707 9.76142 7.4707 7Z" fill="white"/>
<path fill-rule="evenodd" clip-rule="evenodd" d="M12.4706 20C9.54176 20 7.80524 19.1139 6.806 17.9708C6.50153 17.6225 6.42218 17.3163 6.43138 17.0651C6.4412 16.7971 6.55705 16.487 6.81784 16.1692C7.35351 15.5164 8.37194 15 9.47062 15H15.4706C16.5693 15 17.5877 15.5164 18.1234 16.1692C18.3842 16.487 18.5 16.7971 18.5099 17.0651C18.5191 17.3163 18.4397 17.6225 18.1352 17.9708C17.136 19.1139 15.3995 20 12.4706 20ZM5.3002 19.2871C6.77277 20.9716 9.12389 22 12.4706 22C15.8174 22 18.1685 20.9716 19.641 19.2871C20.2453 18.5958 20.5382 17.8036 20.5085 16.9919C20.4794 16.1971 20.1451 15.48 19.6695 14.9004C18.7324 13.7585 17.1334 13 15.4706 13H9.47062C7.80787 13 6.20885 13.7585 5.27177 14.9004C4.79618 15.48 4.46183 16.1971 4.43272 16.9919C4.40299 17.8036 4.69598 18.5958 5.3002 19.2871Z" fill="white"/>
</svg>
